<svg width="1478" height="332" viewBox="0 0 1478 332" fill="none" xmlns="http://www.w3.org/2000/svg">
<mask id="mask0" mask-type="alpha" maskUnits="userSpaceOnUse" x="0" y="0" width="1478" height="332">
<path fill-rule="evenodd" clip-rule="evenodd" d="M0.473648 0H1230L1477.53 332H248L0.473648 0ZM0.473648 332V0H0V332H0.473648ZM1477.53 332V0H1478V332H1477.53Z" fill="url(#paint0_linear)"/>
</mask>
<g mask="url(#mask0)">
<path fill-rule="evenodd" clip-rule="evenodd" d="M0 0H64.74L312.266 332H247.578L0 0ZM388.348 0H140.77L388.348 332H635.874L388.348 0ZM1230.74 0H1083L1330.58 332H1478.27L1230.74 0ZM1053.19 0H1037L1284.58 332H1300.71L1053.19 0ZM74.1699 0H90.3549L337.881 332H321.748L74.1699 0Z" fill="#EA573E"/>
</g>
<defs>
<linearGradient id="paint0_linear" x1="0" y1="0" x2="1478" y2="332" gradientUnits="userSpaceOnUse">
<stop stop-color="#C4C4C4"/>
<stop offset="1" stop-color="#C4C4C4" stop-opacity="0.3"/>
</linearGradient>
</defs>
</svg>
