<svg width="1478" height="332" viewBox="0 0 1478 332" fill="none" xmlns="http://www.w3.org/2000/svg">
<mask id="mask0" mask-type="alpha" maskUnits="userSpaceOnUse" x="0" y="0" width="1478" height="332">
<path fill-rule="evenodd" clip-rule="evenodd" d="M1477.53 332H248L0.473633 0H1230L1477.53 332ZM1477.53 0V332H1478V0H1477.53ZM0.473633 0V332H0V0H0.473633Z" fill="url(#paint0_linear)"/>
</mask>
<g mask="url(#mask0)">
<path fill-rule="evenodd" clip-rule="evenodd" d="M1332.93 332H1480.67L1233.09 0H1085.4L1332.93 332ZM245.526 332H493.104L245.526 0H-2L245.526 332ZM1251.17 332H1186.43L938.904 0H1003.59L1251.17 332ZM541.836 332H558.021L310.444 0H294.31L541.836 332ZM1169 332H1152.82L905.289 0H921.423L1169 332Z" fill="#EA573E"/>
</g>
<defs>
<linearGradient id="paint0_linear" x1="1478" y1="332" x2="2.8446e-05" y2="0.000105099" gradientUnits="userSpaceOnUse">
<stop stop-color="#C4C4C4"/>
<stop offset="1" stop-color="#C4C4C4" stop-opacity="0.3"/>
</linearGradient>
</defs>
</svg>
