<svg width="476" height="279" viewBox="0 0 476 279" fill="none" xmlns="http://www.w3.org/2000/svg">
<path d="M345.408 278.358C321.721 278.358 302.463 259.089 302.463 235.413C302.463 211.737 321.732 192.468 345.408 192.468C369.084 192.468 388.353 211.737 388.353 235.413C388.353 259.089 369.095 278.358 345.408 278.358ZM345.408 215.113C334.216 215.113 325.119 224.221 325.119 235.402C325.119 246.583 334.227 255.691 345.408 255.691C356.589 255.691 365.697 246.583 365.697 235.402C365.697 224.221 356.6 215.113 345.408 215.113Z" fill="#EA573E"/>
<path d="M450.953 221.604C450.953 217.367 450.115 214.128 448.461 211.885C446.796 209.642 444.847 208.52 442.604 208.52C441.517 208.52 440.271 208.735 438.877 209.155C437.484 209.574 436.023 210.197 434.471 211.012C432.93 211.828 431.355 212.802 429.747 213.912C428.138 215.034 426.586 216.291 425.068 217.685V278.336H399.829V195.527H425.068V201.972C428.886 199.129 433.009 197.056 437.461 195.753C441.913 194.451 446.343 193.805 450.761 193.805C454.148 193.805 457.376 194.473 460.435 195.799C463.493 197.135 466.167 198.936 468.466 201.202C470.766 203.468 472.601 206.141 473.961 209.189C475.32 212.247 476 215.532 476 219.044V278.336H450.953V221.604Z" fill="#EA573E"/>
<path d="M330.716 175.056H305.839V40.0469L330.716 34.4167V175.056Z" fill="#EA573E"/>
<path d="M350.585 65.7393C350.585 64.0401 350.937 62.4541 351.628 60.9701C352.319 59.4861 353.282 58.1834 354.482 57.0619C355.694 55.9404 357.122 55.0681 358.753 54.4337C360.384 53.7994 362.14 53.4822 364.021 53.4822C365.901 53.4822 367.668 53.7994 369.334 54.4337C370.999 55.0681 372.438 55.9517 373.65 57.0619C374.862 58.1834 375.825 59.4861 376.55 60.9701C377.275 62.4541 377.637 64.0401 377.637 65.7393C377.637 67.4385 377.275 69.0245 376.55 70.5085C375.825 71.9925 374.85 73.2952 373.65 74.4167C372.438 75.5382 370.999 76.4105 369.334 77.0449C367.668 77.6792 365.901 77.9964 364.021 77.9964C362.14 77.9964 360.384 77.6792 358.753 77.0449C357.122 76.4105 355.694 75.5382 354.482 74.4167C353.27 73.2952 352.319 71.9925 351.628 70.5085C350.925 69.0245 350.585 67.4385 350.585 65.7393ZM351.673 96.6993L376.731 89.8004V175.057H351.673V96.6993Z" fill="#EA573E"/>
<path d="M443.953 118.313C443.953 114.077 443.114 110.837 441.46 108.594C439.795 106.351 437.847 105.229 435.604 105.229C434.516 105.229 433.27 105.445 431.877 105.864C430.483 106.283 429.022 106.906 427.47 107.722C425.929 108.537 424.355 109.511 422.746 110.622C421.138 111.743 419.586 113.001 418.068 114.394V175.045H392.828V92.2359H418.068V98.6817C421.885 95.8383 426.009 93.7652 430.461 92.4625C434.913 91.1597 439.342 90.514 443.76 90.514C447.147 90.514 450.376 91.1824 453.434 92.5078C456.493 93.8445 459.166 95.6457 461.466 97.9114C463.766 100.177 465.601 102.85 466.96 105.898C468.32 108.956 468.999 112.242 468.999 115.753V175.045H443.953V118.313Z" fill="#EA573E"/>
<path d="M200.974 180.936C170.694 180.936 146.077 156.304 146.077 126.039C146.077 95.7746 170.709 71.1428 200.974 71.1428C231.238 71.1428 255.87 95.7746 255.87 126.039C255.87 156.304 231.253 180.936 200.974 180.936ZM200.974 100.09C186.667 100.09 175.039 111.732 175.039 126.025C175.039 140.317 186.681 151.96 200.974 151.96C215.266 151.96 226.909 140.317 226.909 126.025C226.909 111.732 215.281 100.09 200.974 100.09Z" fill="#EA573E"/>
<path d="M289.821 175.056H264.944V40.0469L289.821 34.4167V175.056Z" fill="#EA573E"/>
<path d="M0 0.907959H65.545C76.8959 0.907959 86.8194 2.08609 95.2816 4.44236C103.755 6.79863 110.824 10.0951 116.499 14.3319C122.175 18.5686 126.434 23.5984 129.278 29.4211C132.11 35.2438 133.537 41.5762 133.537 48.4071C133.537 53.3123 132.574 58.0135 130.648 62.4881C128.722 66.9628 126.004 71.0522 122.492 74.7566C118.98 78.4609 114.743 81.7801 109.793 84.7141C104.831 87.6481 99.371 90.0383 93.4124 91.8622L155.638 175.6H109.147L50.3879 96.4841H42.7413V175.6H0V0.907959ZM42.73 81.3269H52.1098C57.3094 81.3269 62.1466 80.6019 66.6212 79.1632C71.0958 77.7246 74.9701 75.6288 78.2439 72.8874C81.5178 70.146 84.0893 66.7815 85.9698 62.7826C87.8503 58.7951 88.7905 54.2865 88.7905 49.2794C88.7905 44.7595 88.0655 40.568 86.6268 36.7164C85.1881 32.8648 83.2057 29.5457 80.7135 26.7589C78.21 23.9722 75.1966 21.7745 71.6849 20.1886C68.1732 18.6026 64.3442 17.8096 60.2094 17.8096H42.73V81.3269Z" fill="#EA573E"/>
<path d="M464.921 69.3305C464.66 67.0648 464.162 64.8672 463.414 62.7375C462.678 60.6078 461.908 58.4894 461.126 56.371C460.344 54.264 459.642 52.1229 459.042 49.9706C458.43 47.8182 458.124 45.5866 458.124 43.2756C458.124 42.1428 458.351 41.0439 458.815 39.9791C459.268 38.9142 459.891 37.9627 460.673 37.1357C461.455 36.3088 462.372 35.6404 463.414 35.1419C464.456 34.6435 465.589 34.3943 466.813 34.3943C468.036 34.3943 469.169 34.6435 470.245 35.1419C471.31 35.6404 472.239 36.3088 473.021 37.1357C473.802 37.9627 474.425 38.9142 474.878 39.9791C475.332 41.0439 475.569 42.1428 475.569 43.2756C475.569 45.5866 475.264 47.8069 474.652 49.9706C474.04 52.1229 473.349 54.2526 472.567 56.371C471.786 58.4781 471.027 60.6078 470.279 62.7375C469.543 64.8672 469.044 67.0648 468.773 69.3305H464.921Z" fill="#EA573E"/>
</svg>
