<svg width="310" height="185" viewBox="0 0 310 185" fill="none" xmlns="http://www.w3.org/2000/svg">
<path d="M1 1H3.54327L9.08554 23.5513L14.6719 1H17.3181L22.8604 23.5513L28.4467 1H30.9312L23.9335 29.2994H21.699L15.9656 6.04244L10.2175 29.2994H7.90946L1 1Z" fill="#EA573E" stroke="#EA573E" stroke-miterlimit="10"/>
<path d="M37.7671 6.30688H40.3251V8.98246H37.7671V6.30688ZM37.7671 12.8341H40.3251V29.2845H37.7671V12.8341Z" fill="#EA573E" stroke="#EA573E" stroke-miterlimit="10"/>
<path d="M51.4832 6.83606H54.0117V12.8341H58.7013V14.8628H54.0117V25.08C54.0117 25.9326 54.2763 26.5942 54.7909 27.0646C55.3054 27.535 55.9964 27.7702 56.8637 27.7702C57.3341 27.7702 57.9516 27.6967 58.7013 27.5203V29.5197C57.8193 29.6079 57.0842 29.652 56.4962 29.652C54.7027 29.652 53.409 29.3286 52.6445 28.667C51.8801 28.0055 51.4979 26.947 51.4979 25.4475V14.8775H48.2048V12.8341H51.4979V6.83606H51.4832Z" fill="#EA573E" stroke="#EA573E" stroke-miterlimit="10"/>
<path d="M64.8757 6.08649H67.4337V14.6572C69.5947 13.7016 71.1384 13.1136 72.0498 12.8636C72.9613 12.6137 73.858 12.4961 74.7107 12.4961C76.2249 12.4961 77.4745 12.9518 78.4447 13.878C79.415 14.7895 79.8854 16.1567 79.8854 17.9796V29.2846H77.3275V17.465C77.3275 16.5242 77.0481 15.7891 76.4748 15.304C75.9015 14.8042 75.1076 14.5689 74.0785 14.5689C73.1671 14.5689 72.1527 14.7307 71.0501 15.0688C69.9476 15.4069 68.7421 15.892 67.4337 16.5536V29.2846H64.8757V6.08649V6.08649Z" fill="#EA573E" stroke="#EA573E" stroke-miterlimit="10"/>
<path d="M33.0481 41.957H78.4447V52.9092H61.5827V105.656H49.8366V52.9092H33.0481V41.957Z" fill="#EA573E" stroke="#EA573E" stroke-width="0.7" stroke-miterlimit="10"/>
<path d="M80.0175 67.6836C82.1345 65.0227 84.6631 62.9793 87.6179 61.5827C90.5581 60.1861 93.7189 59.4805 97.0854 59.4805C100.584 59.4805 103.657 60.142 106.318 61.4798C108.243 62.4795 109.919 64.1407 111.345 66.4487C112.771 68.7715 113.477 71.6676 113.477 75.1664V96.3211C113.477 97.6589 113.639 99.2613 113.947 101.158C114.256 103.039 114.594 104.539 114.962 105.656H105.524C105.083 104.127 104.745 102.569 104.509 100.996C102.584 102.804 100.57 104.157 98.4967 105.083C96.4238 105.994 94.2775 106.45 92.0576 106.45C88.1913 106.45 85.0159 105.215 82.5314 102.731C80.0469 100.246 78.7974 97.2914 78.7974 93.8808C78.7974 91.4992 79.3707 89.2352 80.5174 87.0889C81.6641 84.9573 83.3547 83.0902 85.5598 81.4878C87.7797 79.8854 90.5728 78.6064 93.9394 77.6362C96.4679 76.9158 99.8786 76.2984 104.157 75.7986C104.157 73.8874 103.995 72.4908 103.686 71.6382C103.216 70.3004 102.392 69.2713 101.216 68.5216C100.04 67.7718 98.5996 67.4043 96.8649 67.4043C92.7192 67.4043 89.2351 69.4183 86.4125 73.4464L80.0175 67.6836ZM104.157 93.6602V82.2964C97.9233 83.546 93.6454 85.2513 91.3226 87.4123C89.5291 89.0441 88.6176 90.8965 88.6176 92.9546C88.6176 94.6158 89.1322 95.9977 90.1612 97.0709C91.1903 98.144 92.4987 98.688 94.1011 98.688C95.4536 98.688 96.9825 98.2616 98.6584 97.4237C100.349 96.5857 102.172 95.3361 104.157 93.6602Z" fill="#EA573E" stroke="#EA573E" stroke-width="0.7" stroke-miterlimit="10"/>
<path d="M124.238 41.0013H134.955V52.4534H124.238V41.0013ZM124.238 60.2743H134.955V105.656H124.238V60.2743Z" fill="#EA573E" stroke="#EA573E" stroke-width="0.7" stroke-miterlimit="10"/>
<path d="M141.718 60.2743H151.332L158.624 85.7511L165.827 60.2743H173.854L181.131 86.0451L188.335 60.2743H197.964L185.203 105.656H177.647L169.855 78.2977L162.035 105.656H154.478L141.718 60.2743Z" fill="#EA573E" stroke="#EA573E" stroke-width="0.7" stroke-miterlimit="10"/>
<path d="M205.05 67.6836C207.166 65.0227 209.695 62.9793 212.65 61.5827C215.59 60.1861 218.751 59.4805 222.117 59.4805C225.616 59.4805 228.689 60.142 231.35 61.4798C233.275 62.4795 234.951 64.1407 236.377 66.4487C237.803 68.7715 238.509 71.6676 238.509 75.1664V96.3211C238.509 97.6589 238.671 99.2613 238.979 101.158C239.288 103.039 239.626 104.539 239.994 105.656H230.556C230.115 104.127 229.777 102.569 229.541 100.996C227.616 102.804 225.601 104.157 223.529 105.083C221.456 105.994 219.309 106.45 217.09 106.45C213.223 106.45 210.048 105.215 207.563 102.731C205.079 100.246 203.829 97.2914 203.829 93.8808C203.829 91.4992 204.403 89.2352 205.549 87.0889C206.696 84.9573 208.387 83.0902 210.592 81.4878C212.812 79.8854 215.605 78.6064 218.971 77.6362C221.5 76.9158 224.911 76.2984 229.189 75.7986C229.189 73.8874 229.027 72.4908 228.718 71.6382C228.248 70.3004 227.424 69.2713 226.248 68.5216C225.072 67.7718 223.632 67.4043 221.897 67.4043C217.751 67.4043 214.267 69.4183 211.444 73.4464L205.05 67.6836ZM229.203 93.6602V82.2964C222.97 83.546 218.692 85.2513 216.369 87.4123C214.576 89.0441 213.664 90.8965 213.664 92.9546C213.664 94.6158 214.179 95.9977 215.208 97.0709C216.237 98.144 217.545 98.688 219.148 98.688C220.5 98.688 222.029 98.2616 223.705 97.4237C225.381 96.5857 227.219 95.3361 229.203 93.6602Z" fill="#EA573E" stroke="#EA573E" stroke-width="0.7" stroke-miterlimit="10"/>
<path d="M260.663 66.4781C262.912 64.1995 265.22 62.4648 267.587 61.274C269.969 60.0832 272.586 59.4805 275.452 59.4805C278.687 59.4805 281.009 60.3184 282.421 61.9796C284.302 64.1995 285.243 67.2426 285.243 71.0942V105.656H274.526V74.0197C274.526 72.1674 274.188 70.8296 273.512 70.0505C272.836 69.2566 271.865 68.8597 270.616 68.8597C269.293 68.8597 267.881 69.2566 266.382 70.0505C264.897 70.8443 262.986 72.3732 260.663 74.6519V105.671H249.858V60.2743H260.663V66.4781V66.4781Z" fill="#EA573E" stroke="#EA573E" stroke-width="0.7" stroke-miterlimit="10"/>
<path d="M82.5169 164.445C81.6789 168.032 80.6204 170.87 79.3415 172.987C77.2833 176.397 74.6077 179.073 71.3441 181.028C68.0805 182.983 64.2877 183.939 59.9803 183.939C55.3936 183.939 50.998 182.704 46.8376 180.249C42.6625 177.794 39.4871 174.119 37.3261 169.238C35.165 164.357 34.0771 158.594 34.0771 151.964C34.0771 145.055 35.1797 138.954 37.3849 133.647C39.59 128.34 42.7948 124.37 46.9993 121.724C51.2038 119.078 55.6288 117.755 60.2596 117.755C63.6849 117.755 67.022 118.564 70.3004 120.166C73.5787 121.768 76.2836 124.047 78.4153 126.987C79.9001 129.045 81.0909 131.765 81.9729 135.146L71.0207 138.483C70.2415 135.043 68.845 132.441 66.8456 130.677C64.8463 128.913 62.45 128.031 59.6715 128.031C55.4965 128.031 52.2476 130.177 49.9248 134.485C47.602 138.792 46.4407 144.408 46.4407 151.347C46.4407 155.728 46.9699 159.579 48.0431 162.872C49.1162 166.165 50.5863 168.606 52.4681 170.179C54.3498 171.752 56.3785 172.531 58.569 172.531C61.862 172.531 64.7875 171.267 67.3749 168.738C69.1978 166.989 70.6385 164.46 71.6822 161.167L82.5169 164.445Z" fill="#EA573E" stroke="#EA573E" stroke-width="0.7" stroke-miterlimit="10"/>
<path d="M89.7939 118.034H100.511V129.486H89.7939V118.034ZM89.7939 137.307H100.511V182.689H89.7939V137.307Z" fill="#EA573E" stroke="#EA573E" stroke-width="0.7" stroke-miterlimit="10"/>
<path d="M123.886 143.511C126.135 141.233 128.443 139.498 130.81 138.307C133.191 137.116 135.808 136.514 138.675 136.514C141.909 136.514 144.232 137.352 145.643 139.013C147.525 141.233 148.466 144.276 148.466 148.127V182.689H137.749V151.053C137.749 149.2 137.41 147.863 136.734 147.069C136.058 146.275 135.088 145.878 133.838 145.878C132.515 145.878 131.104 146.275 129.604 147.069C128.119 147.863 126.208 149.392 123.886 151.67V182.689H113.08V137.307H123.886V143.511V143.511Z" fill="#EA573E" stroke="#EA573E" stroke-width="0.7" stroke-miterlimit="10"/>
<path d="M194.141 171.781C193.156 173.751 192.245 175.265 191.407 176.324C190.099 177.956 188.658 179.308 187.056 180.367C185.468 181.425 183.821 182.204 182.131 182.704C180.44 183.204 178.661 183.454 176.809 183.454C173.207 183.454 169.782 182.469 166.533 180.514C163.284 178.558 160.8 175.706 159.08 171.972C157.36 168.238 156.492 164.063 156.492 159.462C156.492 152.464 158.345 146.893 162.064 142.747C165.783 138.601 170.532 136.528 176.324 136.528C181.984 136.528 186.526 138.425 189.937 142.218C193.348 146.01 195.068 151.303 195.068 158.095C195.068 158.977 195.023 160.285 194.95 162.005H167.871C168.003 166.107 168.9 169.164 170.576 171.164C172.252 173.163 174.339 174.163 176.882 174.163C178.808 174.163 180.455 173.634 181.807 172.56C183.16 171.487 184.336 169.914 185.335 167.841L194.141 171.781ZM185.335 155.125C185.174 151.656 184.262 148.995 182.601 147.128C180.925 145.275 178.882 144.335 176.456 144.335C174.133 144.335 172.163 145.246 170.561 147.054C168.959 148.877 168.047 151.553 167.841 155.11H185.335V155.125Z" fill="#EA573E" stroke="#EA573E" stroke-width="0.7" stroke-miterlimit="10"/>
<path d="M214.34 146.216C217.413 142.438 220.074 139.88 222.308 138.528C224.543 137.175 226.851 136.514 229.262 136.514C232.085 136.514 234.26 137.249 235.819 138.719C237.377 140.189 238.509 142.82 239.244 146.628C243.022 142.218 245.889 139.424 247.815 138.263C249.74 137.102 251.99 136.514 254.548 136.514C256.797 136.514 258.576 136.94 259.884 137.778C261.207 138.63 262.295 139.939 263.148 141.718C264.324 144.07 264.912 147.495 264.912 151.964V182.689H254.151V153.802C254.151 150.965 253.695 148.98 252.798 147.833C251.901 146.687 250.667 146.113 249.094 146.113C247.815 146.113 246.491 146.569 245.124 147.48C243.757 148.392 241.905 150.318 239.582 153.229V182.704H228.821V154.316C228.821 151.229 228.35 149.039 227.395 147.745C226.439 146.451 225.307 145.79 224.014 145.79C222.455 145.79 220.868 146.407 219.265 147.642C217.663 148.877 216.016 150.744 214.355 153.243V182.719H203.521V137.307H214.355V146.216H214.34Z" fill="#EA573E" stroke="#EA573E" stroke-width="0.7" stroke-miterlimit="10"/>
<path d="M274.056 144.717C276.173 142.056 278.701 140.012 281.656 138.616C284.596 137.219 287.757 136.514 291.124 136.514C294.623 136.514 297.695 137.175 300.356 138.513C302.282 139.513 303.958 141.174 305.384 143.482C306.81 145.805 307.515 148.701 307.515 152.199V173.354C307.515 174.692 307.677 176.294 307.986 178.191C308.294 180.073 308.633 181.572 309 182.689H299.562C299.121 181.16 298.783 179.602 298.548 178.029C296.622 179.837 294.608 181.19 292.535 182.116C290.462 183.027 288.316 183.483 286.096 183.483C282.23 183.483 279.054 182.248 276.57 179.749C274.085 177.265 272.836 174.31 272.836 170.899C272.836 168.518 273.409 166.254 274.556 164.107C275.702 161.976 277.393 160.109 279.598 158.506C281.818 156.919 284.611 155.625 287.978 154.655C290.506 153.934 293.917 153.317 298.195 152.817C298.195 150.906 298.033 149.509 297.724 148.657C297.254 147.319 296.431 146.29 295.255 145.54C294.079 144.79 292.638 144.423 290.903 144.423C286.758 144.423 283.273 146.437 280.451 150.465L274.056 144.717ZM298.21 170.693V159.329C291.976 160.579 287.698 162.284 285.376 164.445C283.582 166.077 282.671 167.93 282.671 169.988C282.671 171.649 283.185 173.031 284.214 174.104C285.243 175.177 286.552 175.721 288.154 175.721C289.507 175.721 291.036 175.295 292.711 174.457C294.387 173.619 296.225 172.369 298.21 170.693Z" fill="#EA573E" stroke="#EA573E" stroke-width="0.7" stroke-miterlimit="10"/>
</svg>
